<svg xmlns="http://www.w3.org/2000/svg" color-interpolation-filters="sRGB" style="margin:auto" version="1.0" viewBox="0 0 340 250"><rect width="100%" height="100%" fill="#fff" class="background"/><rect width="100%" height="100%" fill="url(#watermark)" class="watermarklayer"/><g fill="#1A1A1A" class="icon-text-wrapper icon-svg-group iconsvg"><g class="iconsvg-imagesvg" transform="translate(47.99 92.042)"><path fill="none" d="M0 0h60v65.917H0z" class="image-rect"/><svg width="60" height="65.917" class="image-svg-svg primary" style="overflow:visible"><svg xmlns="http://www.w3.org/2000/svg" viewBox="0 0 51.92 57.04"><g data-name="图层 2"><g data-name="Layer 1"><path fill="#1a1a1a" d="M15.56 15.56h31.11l3-9.09L51.82 0H10.37Q0 0 0 10.37v36.3Q0 57 10.37 57h22.7l5.11-15.56H15.56z"/><path fill="#d9e021" d="m46.81 57.04 5.04-15.56H38.19l-5.12 15.56h13.74z"/><path fill="#8cc63f" d="m46.76 57.04 5.16-15.56H41.63l-5.12 15.56h10.25z"/><path fill="#39b54a" d="m46.76 57.04 5.16-15.56h-6.86l-5.12 15.56h6.82z"/><path fill="#009245" d="m46.81 57.04 5.11-15.56h-3.43l-5.11 15.55 3.43.01z"/></g></g></svg></svg></g><g><path d="m129.87 103.792-1.49 4.46h-8.93v13.39h10.42v4.46h-11.9q-2.98 0-2.98-2.98v-16.36q0-2.97 2.98-2.97h11.9Zm20.82 8.92v10.41q0 2.98-2.97 2.98h-11.9q-2.98 0-2.98-2.98v-10.41q0-2.97 2.98-2.97h11.9q2.97 0 2.97 2.97Zm-4.46 1.49h-8.93v7.44h8.93v-7.44Zm7.44-1.49q0-2.97 2.97-2.97h11.9q2.98 0 2.98 2.97v10.41q0 2.98-2.98 2.98h-8.92l1.49-4.46h5.95v-7.44h-8.93v17.85h-4.46v-19.34Zm20.82 0q0-2.97 2.98-2.97h11.9q2.98 0 2.98 2.97v10.41q0 2.98-2.98 2.98h-8.93l1.49-4.46h5.95v-7.44h-8.92v17.85h-4.47v-19.34Zm35.71-2.97q2.97 0 2.97 2.97v4.46q0 2.98-2.97 2.98h-8.93v-4.46h7.44v-1.49h-8.93v7.44h10.4l-1.46 4.46H198.3q-2.98 0-2.98-2.98v-10.41q0-2.97 2.98-2.97h11.9Zm10.41 16.36h-4.46v-13.39q0-2.97 2.97-2.97h8.91l-1.48 4.46h-5.94v11.9Zm13.39 0h-4.46v-19.34q0-2.97 2.97-2.97h4.46l-1.48 4.46H234v1.49h1.49v4.46H234v11.9Zm4.46-22.31h4.46l-1.48 4.46h-2.98v-4.46Zm0 22.31h4.46v-16.36h-4.46v16.36Zm22.32-16.36q2.97 0 2.97 2.97v4.46q0 2.98-2.97 2.98h-8.93v-4.46h7.44v-1.49h-8.93v7.44h10.4l-1.46 4.46h-10.43q-2.97 0-2.97-2.98v-10.41q0-2.97 2.97-2.97h11.91Zm10.41 16.36h-4.46v-22.31h4.46v22.31Zm20.82-2.98q0 2.98-2.97 2.98h-11.9q-2.98 0-2.98-2.98v-10.41q0-2.97 2.98-2.97h8.92l-1.48 4.46h-5.95v7.44h8.92v-17.85h4.46v19.33Z" class="tp-name iconsvg-namesvg" data-gra="path-name"/><g class="tp-slogan iconsvg-slogansvg" data-gra="path-slogan"><path d="M119.99 141.632h61.975v1H119.99zM225.035 141.632h61.975v1h-61.975zM184.965 138.198v7.87h4.66v-.85h-3.66v-2.86h2.98v-.85h-2.98v-2.47h3.54v-.84Zm6.32 0v7.87h.95v-4.12c0-.41-.01-.83-.04-1.24l-.09-1.22h.05l.85 1.62 2.86 4.96h1.03v-7.87h-.95v4.07c0 .41.01.83.04 1.26.03.43.06.84.08 1.24h-.05l-.85-1.63-2.84-4.94Zm7.31 3.93c0 .64.09 1.22.27 1.73.17.5.42.93.73 1.28s.68.61 1.11.8c.44.18.91.27 1.43.27.53 0 1-.08 1.42-.25.42-.18.76-.39 1.02-.66v-3.31h-2.58v.83h1.67v2.05c-.16.14-.37.26-.62.34-.25.09-.52.13-.8.13-.42 0-.8-.08-1.12-.23-.33-.15-.6-.37-.82-.65-.22-.28-.39-.62-.5-1.01-.12-.4-.18-.84-.18-1.34 0-.49.07-.93.19-1.32s.3-.73.52-1c.23-.28.5-.49.82-.64.32-.15.68-.22 1.08-.22s.73.07.99.21c.26.14.49.31.69.52l.56-.63c-.23-.24-.53-.47-.89-.67-.37-.2-.82-.31-1.36-.31-.53 0-1.02.1-1.46.29-.44.18-.82.45-1.14.81-.33.35-.58.78-.76 1.28-.18.5-.27 1.07-.27 1.7Zm7.86-3.93v7.87h1v-7.87Zm3.16 0v7.87h.95v-4.12c0-.41-.02-.83-.05-1.24-.02-.41-.05-.82-.09-1.22h.05l.85 1.62 2.86 4.96h1.03v-7.87h-.95v4.07c0 .41.02.83.05 1.26.02.43.05.84.07 1.24h-.04l-.86-1.63-2.84-4.94Zm7.76 0v7.87h4.66v-.85h-3.66v-2.86h2.99v-.85h-2.99v-2.47h3.54v-.84Z"/></g></g></g></svg>